<svg width="125" height="63" viewBox="0 0 125 63" fill="none" xmlns="http://www.w3.org/2000/svg">
<path id="Ellipse 274" d="M115.625 62.5C120.803 62.5 125.072 58.2796 124.298 53.16C123.543 48.1658 122.184 43.27 120.242 38.5823C117.102 30.9994 112.498 24.1095 106.694 18.3058C100.891 12.5022 94.0006 7.89845 86.4177 4.75753C78.8349 1.61661 70.7076 -3.58766e-07 62.5 0C54.2924 3.58766e-07 46.1651 1.61661 38.5823 4.75753C30.9994 7.89845 24.1095 12.5022 18.3058 18.3058C12.5022 24.1095 7.89845 30.9994 4.75753 38.5823C2.8158 43.27 1.45663 48.1658 0.701815 53.1601C-0.0719352 58.2796 4.19733 62.5 9.375 62.5C14.5527 62.5 18.6496 58.2558 19.7506 53.1965C20.303 50.6586 21.0815 48.1688 22.0803 45.7576C24.2789 40.4496 27.5015 35.6266 31.5641 31.5641C35.6266 27.5015 40.4496 24.2789 45.7576 22.0803C51.0656 19.8816 56.7547 18.75 62.5 18.75C68.2453 18.75 73.9344 19.8816 79.2424 22.0803C84.5504 24.2789 89.3734 27.5015 93.4359 31.5641C97.4985 35.6266 100.721 40.4496 102.92 45.7576C103.918 48.1688 104.697 50.6586 105.249 53.1965C106.35 58.2558 110.447 62.5 115.625 62.5Z" fill="#E2E3E8"/>
</svg>
