<svg width="110" height="63" viewBox="0 0 110 63" fill="none" xmlns="http://www.w3.org/2000/svg">
<path id="Ellipse 275" d="M9.375 62.5C4.19733 62.5 -0.0719986 58.2794 0.701782 53.1598C2.19136 43.3044 6.02458 33.9004 11.9364 25.7634C19.6944 15.0854 30.6337 7.13759 43.1864 3.05897C55.7392 -1.01966 69.2609 -1.01966 81.8136 3.05897C91.3792 6.16702 100.008 11.5219 107.006 18.6196C110.641 22.3065 109.668 28.2306 105.479 31.2739C101.29 34.3173 95.481 33.2916 91.6165 29.8458C87.1186 25.8353 81.8147 22.7743 76.0195 20.8913C67.2326 18.0362 57.7674 18.0362 48.9805 20.8913C40.1936 23.7463 32.5361 29.3098 27.1055 36.7844C23.5239 41.7141 21.0322 47.3081 19.7506 53.1964C18.6495 58.2557 14.5527 62.5 9.375 62.5Z" fill="url(#paint0_linear_238_2782)"/>
<defs>
<linearGradient id="paint0_linear_238_2782" x1="90.5" y1="30.5" x2="4.5" y2="63" gradientUnits="userSpaceOnUse">
<stop stop-color="#BCFE00"/>
<stop offset="0.515" stop-color="#FEE400"/>
<stop offset="0.995" stop-color="#FF3333"/>
</linearGradient>
</defs>
</svg>
