<?xml version="1.0" encoding="UTF-8"?>
<svg xmlns="http://www.w3.org/2000/svg" xmlns:xlink="http://www.w3.org/1999/xlink" width="21px" height="20px" viewBox="0 0 20 20" version="1.1">
<g id="surface1">
<path style="fill-rule:nonzero;fill:rgb(0%,0%,0%);fill-opacity:1;stroke-width:0.09375;stroke-linecap:butt;stroke-linejoin:miter;stroke:rgb(0%,0%,0%);stroke-opacity:1;stroke-miterlimit:4;" d="M 0 59.380938 C 4.265625 23.81625 40.804688 -3.444688 76.03125 0.980938 C 87.773438 2.3725 99.234375 7.93875 106.757812 17.200625 C 115.242188 27.83125 119.976562 41.404688 119.789062 55.02375 C 120.023438 71.220625 113.179688 87.32625 101.578125 98.595625 C 90.164062 109.979063 74.085938 116.480625 57.984375 116.298125 C 41.203125 116.389375 24.585938 109.112188 13.148438 96.839063 C 5.90625 89.470625 1.054688 79.729688 0 69.372813 L 0 59.380938 M 56.554688 7.710625 C 36.421875 12.090625 18.328125 26.120313 10.054688 45.145938 C 5.53125 55.525625 4.195312 67.730313 8.320312 78.452188 C 12.140625 89.082813 21.28125 97.386563 31.945312 100.876875 C 43.03125 104.777813 55.335938 104.093438 66.421875 100.489063 C 81.585938 95.470313 95.015625 84.999375 103.125 71.175 C 108.796875 61.616563 111.773438 50.1875 110.109375 39.077813 C 108.539062 28.492813 102.164062 18.729063 93.023438 13.14 C 82.265625 6.3875 68.789062 5.11 56.554688 7.710625 Z M 56.554688 7.710625 " transform="matrix(0.166667,0,0,0.171233,0,0)"/>
<path style="fill-rule:nonzero;fill:rgb(100%,89.019608%,0%);fill-opacity:1;stroke-width:0.09375;stroke-linecap:butt;stroke-linejoin:miter;stroke:rgb(100%,89.019608%,0%);stroke-opacity:1;stroke-miterlimit:4;" d="M 56.554688 7.710625 C 68.789062 5.11 82.265625 6.3875 93.023438 13.14 C 102.164062 18.729063 108.539062 28.492813 110.109375 39.077813 C 111.773438 50.1875 108.796875 61.616563 103.125 71.175 C 95.015625 84.999375 81.585938 95.470313 66.421875 100.489063 C 55.335938 104.093438 43.03125 104.777813 31.945312 100.876875 C 21.28125 97.386563 12.140625 89.082813 8.320312 78.452188 C 4.195312 67.730313 5.53125 55.525625 10.054688 45.145938 C 18.328125 26.120313 36.421875 12.090625 56.554688 7.710625 M 50.226562 13.185625 C 47.695312 15.010625 49.007812 18.52375 49.359375 21.055938 C 50.0625 24.500625 55.96875 23.5425 55.5 20.029375 C 55.875 16.812813 54.65625 11.178125 50.226562 13.185625 M 66.164062 17.018125 C 64.898438 22.150938 64.523438 27.46625 63.445312 32.644688 C 61.851562 33.465938 59.648438 32.827188 57.84375 33.0325 C 57.5625 31.070625 57.375 29.085938 56.882812 27.169688 C 55.359375 24.72875 51.609375 25.55 50.648438 28.059375 C 50.976562 30.340625 51.304688 32.599063 51.539062 34.880313 C 49.5 35.975313 47.460938 37.070313 45.421875 38.210938 C 42.84375 33.922188 40.289062 29.633438 37.664062 25.390313 C 36.75 23.200313 33.117188 23.063438 32.039062 25.185 C 30.984375 26.576563 31.78125 28.150625 32.578125 29.428125 C 35.25 33.899375 37.96875 38.302188 40.6875 42.750625 C 39.84375 43.89125 39 45.054688 38.179688 46.195313 C 32.0625 43.936875 26.179688 41.085313 20.015625 38.96375 C 16.898438 38.712813 15.328125 43.389375 18.164062 44.872188 C 23.8125 47.586875 29.765625 49.571563 35.460938 52.149375 C 35.15625 53.56375 34.851562 55.000938 34.570312 56.415313 C 27.421875 57.21375 20.25 57.989375 13.125 58.924688 C 9.796875 59.22125 9.820312 64.7875 13.101562 65.175313 C 20.367188 64.673438 27.5625 63.532813 34.804688 62.78 C 35.25 64.125938 35.695312 65.449063 36.140625 66.795 C 30.679688 71.81375 25.125 76.74125 19.710938 81.805625 C 17.226562 84.315 20.648438 88.649375 23.648438 86.77875 C 29.273438 82.102188 34.429688 76.900938 39.984375 72.133125 C 42.140625 73.479063 44.226562 74.984688 46.570312 76.01125 C 45.609375 78.634688 44.390625 81.189688 43.710938 83.904375 C 43.523438 86.892813 47.296875 88.170313 49.335938 86.299688 C 50.90625 83.379688 51.75 80.163125 53.039062 77.129063 C 55.6875 77.129063 58.289062 76.878125 60.867188 76.307813 C 62.320312 81.463438 63.445312 86.733125 65.109375 91.820313 C 66.539062 94.831563 71.578125 93.44 71.132812 90.132188 C 69.914062 84.702813 68.25 79.364688 66.914062 73.980938 C 68.601562 72.885938 70.3125 71.790938 71.953125 70.6275 C 75.515625 73.889688 78.5625 77.722188 82.476562 80.619375 C 85.101562 81.805625 88.195312 78.885625 86.695312 76.262188 C 83.53125 72.612188 79.921875 69.395625 76.429688 66.065 C 77.320312 64.650625 78.210938 63.213438 79.101562 61.77625 C 85.054688 62.14125 91.007812 63.076563 96.984375 62.939688 C 99.726562 62.027188 99.703125 57.784063 96.960938 56.917188 C 91.78125 56.21 86.53125 56.050313 81.328125 55.639688 C 81.421875 53.449688 81.492188 51.259688 81.492188 49.069688 C 87.796875 46.44625 94.171875 44.028125 100.453125 41.359063 C 102.679688 40.537813 102.890625 37.001875 100.851562 35.884063 C 99.445312 34.789063 97.59375 35.564688 96.140625 36.089375 C 90.632812 38.302188 85.148438 40.583438 79.59375 42.750625 C 78.773438 41.51875 77.929688 40.264063 77.085938 39.032188 C 82.078125 34.013438 87.140625 29.040313 92.109375 23.99875 C 95.671875 21.07875 90.304688 16.014375 87.421875 19.481875 C 82.148438 24.660313 76.96875 29.93 71.742188 35.13125 C 71.226562 34.903125 70.21875 34.40125 69.703125 34.150313 C 70.476562 29.450938 71.34375 24.751563 72.070312 20.029375 C 72.210938 18.615 72.726562 16.653125 71.15625 15.78625 C 69.585938 14.235 66.890625 15.010625 66.164062 17.018125 M 42.070312 90.018125 C 41.039062 92.185313 39.796875 94.489375 40.03125 96.975938 C 40.992188 99.439688 44.015625 99.4625 45.890625 98.0025 C 46.523438 95.698438 47.882812 93.53125 48 91.090313 C 47.625 88.284375 43.195312 87.303438 42.070312 90.018125 Z M 42.070312 90.018125 " transform="matrix(0.166667,0,0,0.171233,0,0)"/>
<path style="fill-rule:nonzero;fill:rgb(0%,0%,0%);fill-opacity:1;stroke-width:0.09375;stroke-linecap:butt;stroke-linejoin:miter;stroke:rgb(0%,0%,0%);stroke-opacity:1;stroke-miterlimit:4;" d="M 50.226562 13.185625 C 54.65625 11.178125 55.875 16.812813 55.5 20.029375 C 55.96875 23.5425 50.0625 24.500625 49.359375 21.055938 C 49.007812 18.52375 47.695312 15.010625 50.226562 13.185625 Z M 50.226562 13.185625 " transform="matrix(0.166667,0,0,0.171233,0,0)"/>
<path style="fill-rule:nonzero;fill:rgb(0%,0%,0%);fill-opacity:1;stroke-width:0.09375;stroke-linecap:butt;stroke-linejoin:miter;stroke:rgb(0%,0%,0%);stroke-opacity:1;stroke-miterlimit:4;" d="M 66.164062 17.018125 C 66.890625 15.010625 69.585938 14.235 71.15625 15.78625 C 72.726562 16.653125 72.210938 18.615 72.070312 20.029375 C 71.34375 24.751563 70.476562 29.450938 69.703125 34.150313 C 70.21875 34.40125 71.226562 34.903125 71.742188 35.13125 C 76.96875 29.93 82.148438 24.660313 87.421875 19.481875 C 90.304688 16.014375 95.671875 21.07875 92.109375 23.99875 C 87.140625 29.040313 82.078125 34.013438 77.085938 39.032188 C 77.929688 40.264063 78.773438 41.51875 79.59375 42.750625 C 85.148438 40.583438 90.632812 38.302188 96.140625 36.089375 C 97.59375 35.564688 99.445312 34.789063 100.851562 35.884063 C 102.890625 37.001875 102.679688 40.537813 100.453125 41.359063 C 94.171875 44.028125 87.796875 46.44625 81.492188 49.069688 C 81.492188 51.259688 81.421875 53.449688 81.328125 55.639688 C 86.53125 56.050313 91.78125 56.21 96.960938 56.917188 C 99.703125 57.784063 99.726562 62.027188 96.984375 62.939688 C 91.007812 63.076563 85.054688 62.14125 79.101562 61.77625 C 78.210938 63.213438 77.320312 64.650625 76.429688 66.065 C 79.921875 69.395625 83.53125 72.612188 86.695312 76.262188 C 88.195312 78.885625 85.101562 81.805625 82.476562 80.619375 C 78.5625 77.722188 75.515625 73.889688 71.953125 70.6275 C 70.3125 71.790938 68.601562 72.885938 66.914062 73.980938 C 68.25 79.364688 69.914062 84.702813 71.132812 90.132188 C 71.578125 93.44 66.539062 94.831563 65.109375 91.820313 C 63.445312 86.733125 62.320312 81.463438 60.867188 76.307813 C 58.289062 76.878125 55.6875 77.129063 53.039062 77.129063 C 51.75 80.163125 50.90625 83.379688 49.335938 86.299688 C 47.296875 88.170313 43.523438 86.892813 43.710938 83.904375 C 44.390625 81.189688 45.609375 78.634688 46.570312 76.01125 C 44.226562 74.984688 42.140625 73.479063 39.984375 72.133125 C 34.429688 76.900938 29.273438 82.102188 23.648438 86.77875 C 20.648438 88.649375 17.226562 84.315 19.710938 81.805625 C 25.125 76.74125 30.679688 71.81375 36.140625 66.795 C 35.695312 65.449063 35.25 64.125938 34.804688 62.78 C 27.5625 63.532813 20.367188 64.673438 13.101562 65.175313 C 9.820312 64.7875 9.796875 59.22125 13.125 58.924688 C 20.25 57.989375 27.421875 57.21375 34.570312 56.415313 C 34.851562 55.000938 35.15625 53.56375 35.460938 52.149375 C 29.765625 49.571563 23.8125 47.586875 18.164062 44.872188 C 15.328125 43.389375 16.898438 38.712813 20.015625 38.96375 C 26.179688 41.085313 32.0625 43.936875 38.179688 46.195313 C 39 45.054688 39.84375 43.89125 40.6875 42.750625 C 37.96875 38.302188 35.25 33.899375 32.578125 29.428125 C 31.78125 28.150625 30.984375 26.576563 32.039062 25.185 C 33.117188 23.063438 36.75 23.200313 37.664062 25.390313 C 40.289062 29.633438 42.84375 33.922188 45.421875 38.210938 C 47.460938 37.070313 49.5 35.975313 51.539062 34.880313 C 51.304688 32.599063 50.976562 30.340625 50.648438 28.059375 C 51.609375 25.55 55.359375 24.72875 56.882812 27.169688 C 57.375 29.085938 57.5625 31.070625 57.84375 33.0325 C 59.648438 32.827188 61.851562 33.465938 63.445312 32.644688 C 64.523438 27.46625 64.898438 22.150938 66.164062 17.018125 M 56.15625 39.169063 C 48.703125 41.359063 42.257812 47.404375 40.359375 55.046563 C 39.257812 59.380938 40.289062 64.285625 43.523438 67.456563 C 47.648438 71.790938 54.351562 72.4525 59.859375 70.81 C 69.375 68.0725 77.90625 58.30875 75.679688 47.974688 C 73.6875 39.716563 63.5625 36.522813 56.15625 39.169063 Z M 56.15625 39.169063 " transform="matrix(0.166667,0,0,0.171233,0,0)"/>
<path style="fill-rule:nonzero;fill:rgb(100%,100%,100%);fill-opacity:1;stroke-width:0.09375;stroke-linecap:butt;stroke-linejoin:miter;stroke:rgb(100%,100%,100%);stroke-opacity:1;stroke-miterlimit:4;" d="M 56.15625 39.169063 C 63.5625 36.522813 73.6875 39.716563 75.679688 47.974688 C 77.90625 58.30875 69.375 68.0725 59.859375 70.81 C 54.351562 72.4525 47.648438 71.790938 43.523438 67.456563 C 40.289062 64.285625 39.257812 59.380938 40.359375 55.046563 C 42.257812 47.404375 48.703125 41.359063 56.15625 39.169063 Z M 56.15625 39.169063 " transform="matrix(0.166667,0,0,0.171233,0,0)"/>
<path style="fill-rule:nonzero;fill:rgb(0%,0%,0%);fill-opacity:1;stroke-width:0.09375;stroke-linecap:butt;stroke-linejoin:miter;stroke:rgb(0%,0%,0%);stroke-opacity:1;stroke-miterlimit:4;" d="M 42.070312 90.018125 C 43.195312 87.303438 47.625 88.284375 48 91.090313 C 47.882812 93.53125 46.523438 95.698438 45.890625 98.0025 C 44.015625 99.4625 40.992188 99.439688 40.03125 96.975938 C 39.796875 94.489375 41.039062 92.185313 42.070312 90.018125 Z M 42.070312 90.018125 " transform="matrix(0.166667,0,0,0.171233,0,0)"/>
</g>
</svg>
