<svg width="100" height="32" viewBox="0 0 100 32" fill="none" xmlns="http://www.w3.org/2000/svg">
<path d="M17.7726 2C23.5927 2 28.3025 6.65432 28.2838 12.3873L28.2767 14.5448C28.25 22.7068 21.5047 29.33 13.2188 29.33H11.2506C5.80581 29.33 1.39373 24.9698 1.41125 19.6064L1.41628 18.0676C1.45291 9.19646 8.77448 2 17.7726 2Z" fill="#FEE400"/>
<path d="M27.1824 5.97226C27.1824 5.97226 27.1368 5.91779 27.1216 5.88666C27.1596 5.94113 27.1976 5.99561 27.2356 6.05008C27.2204 6.02673 27.2052 5.99561 27.19 5.97226H27.1824Z" fill="#000814"/>
<path d="M1.98386 24.267C1.98386 24.267 2.02945 24.3215 2.04465 24.3526C2.00665 24.2981 1.96866 24.2437 1.93066 24.1892C1.94586 24.2125 1.96106 24.2359 1.97626 24.267H1.98386Z" fill="#000814"/>
<path d="M27.6058 6.64196C27.485 6.43963 27.3642 6.24507 27.2358 6.04274C27.1981 5.98827 27.1603 5.93379 27.1225 5.87932C24.8722 2.65757 21.1796 1 17.1546 1V2.47858C20.9002 2.47858 24.1322 4.05833 26.0125 6.82094C29.607 12.0816 27.4095 20.0815 21.104 24.6573C18.3553 26.6573 15.1309 27.7546 12.0197 27.7546C8.27414 27.7546 5.04212 26.1748 3.15426 23.4122C-0.440234 18.1516 1.76479 10.1516 8.0627 5.5836C10.8114 3.58363 14.0434 2.47858 17.1546 2.47858V1.73929V1C13.8622 1 10.3508 2.11283 7.23959 4.36961C0.307359 9.40457 -2.04869 18.2527 1.93847 24.1904C1.97623 24.2449 2.01399 24.2993 2.05174 24.3538C4.84578 28.3771 9.42196 30.9996 14.5871 30.9996C23.0976 30.9996 29.9997 23.8869 29.9997 15.1166C29.9997 11.996 29.1161 9.09329 27.6058 6.64196Z" fill="#000814"/>
<path d="M25.5667 10.5271C25.4081 10.1224 24.955 9.92788 24.5624 10.0913L19.9635 12.0135C19.8729 11.8345 19.7747 11.6555 19.6615 11.4843L19.6162 11.422C19.5104 11.2664 19.3972 11.1263 19.2688 10.9862L23.1351 7.00184C23.4372 6.69056 23.4372 6.19251 23.1351 5.88123C22.8331 5.56995 22.3498 5.56995 22.0477 5.88123L18.1285 9.91232C18.1285 9.91232 18.0832 9.99014 18.053 10.029C17.7736 9.87341 17.4715 9.75668 17.1544 9.65551L17.9775 5.7645C18.0681 5.33649 17.8038 4.91626 17.3885 4.82288C16.9732 4.7295 16.5654 5.00187 16.4748 5.42988L15.6516 9.34423C15.6516 9.34423 15.6516 9.3987 15.6516 9.42205H15.1759C14.9645 9.43761 14.7455 9.46874 14.534 9.49987L14.3301 8.19249C14.2622 7.7567 13.862 7.46876 13.4466 7.5388C13.0237 7.60884 12.7443 8.02129 12.8123 8.4493L13.0464 9.93566C12.5707 10.138 12.11 10.3948 11.672 10.6983L9.14986 7.46098C8.88556 7.11857 8.40226 7.0641 8.07 7.33647C7.73774 7.60884 7.68488 8.10689 7.94918 8.4493L10.494 11.7177C10.494 11.7177 10.5016 11.7177 10.5091 11.7333C10.1769 12.0991 9.8899 12.4804 9.64825 12.885L5.34393 11.0641C4.95125 10.9006 4.49817 11.0874 4.33959 11.4998C4.181 11.9045 4.36224 12.3714 4.76247 12.5349L9.01393 14.3325C8.89311 14.7216 8.81759 15.1107 8.77228 15.4998L3.44096 16.1379C3.01808 16.1846 2.71602 16.5815 2.76133 17.0173C2.80664 17.422 3.13891 17.7177 3.52403 17.7177C3.55424 17.7177 3.58444 17.7177 3.61465 17.7177L8.84025 17.0951C8.91576 17.4609 9.02903 17.8188 9.19517 18.1612L5.07963 22.0445C4.76247 22.3402 4.74736 22.846 5.03432 23.1651C5.18535 23.3363 5.39679 23.4219 5.60068 23.4219C5.78946 23.4219 5.9707 23.3519 6.12173 23.2118L10.1164 19.4453C10.5846 19.9044 11.1434 20.2624 11.7702 20.4959L11.1359 22.3791C10.9924 22.7915 11.2114 23.2429 11.6116 23.3908C11.7022 23.4219 11.7929 23.4375 11.8835 23.4375C12.1931 23.4297 12.48 23.2273 12.5933 22.9083L13.3032 20.8071C13.4164 20.8071 13.5297 20.8227 13.643 20.8227C14.2093 20.8227 14.7757 20.7371 15.342 20.5815L16.3464 24.4725C16.437 24.8304 16.7466 25.0639 17.0864 25.0639C17.1544 25.0639 17.2224 25.0561 17.2828 25.0405C17.6905 24.9238 17.9397 24.4958 17.8265 24.0678L16.7768 19.9978C17.0562 19.8499 17.3281 19.6787 17.5924 19.492C17.7585 19.3675 17.9246 19.2429 18.0832 19.1029L20.5223 21.5698C20.6734 21.7176 20.8697 21.7954 21.0585 21.7954C21.2473 21.7954 21.4587 21.7176 21.6097 21.5542C21.9042 21.2429 21.9042 20.7371 21.6022 20.4336L19.148 17.9589C19.4123 17.6009 19.6464 17.2274 19.8352 16.8383L24.0187 17.1729C24.0187 17.1729 24.0564 17.1729 24.0791 17.1729C24.4793 17.1729 24.8116 16.8539 24.8493 16.4414C24.8795 16.0056 24.5624 15.6243 24.1395 15.5854L20.3638 15.2819C20.4846 14.6905 20.5072 14.099 20.4393 13.531L25.1665 11.5543C25.5591 11.3909 25.7479 10.924 25.5894 10.5193L25.5667 10.5271ZM16.8146 18.3869C15.8404 19.0951 14.7077 19.4764 13.6203 19.4764C12.3366 19.4764 11.2341 18.9394 10.5997 18.0134C9.36885 16.2157 10.1542 13.4531 12.3517 11.8578C13.3183 11.1497 14.4585 10.7683 15.5459 10.7683C16.8297 10.7683 17.9322 11.3053 18.5665 12.2314C19.7974 14.029 19.012 16.7916 16.8146 18.3869Z" fill="#000814"/>
<path d="M11.5368 23.8948C11.1366 23.7392 10.691 23.9493 10.5476 24.354L10.1398 25.459C9.98875 25.8715 10.1926 26.3306 10.5853 26.4785C10.6759 26.5174 10.7665 26.5329 10.8572 26.5329C11.1668 26.5329 11.4613 26.3384 11.5746 26.0193L11.9823 24.9143C12.1334 24.5018 11.9295 24.0427 11.5368 23.8948Z" fill="#000814"/>
<path d="M12.3436 6.23839C12.4342 6.63527 12.7967 6.89208 13.1818 6.84539C13.212 6.84539 13.2347 6.8376 13.2649 6.82982C13.6802 6.72866 13.937 6.30065 13.8388 5.87264L13.6047 4.85319C13.5065 4.42518 13.0912 4.16059 12.6759 4.26176C12.2606 4.36293 12.0038 4.79094 12.102 5.21895L12.3361 6.23839H12.3436Z" fill="#000814"/>
<path d="M15.5458 10.7596C14.4509 10.7596 13.3182 11.1487 12.3516 11.8491C10.1541 13.4444 9.36875 16.2071 10.5996 18.0047C11.234 18.9385 12.3365 19.4677 13.6202 19.4677C14.7152 19.4677 15.8479 19.0786 16.8145 18.3782C19.012 16.7829 19.7973 14.0203 18.5664 12.2227C17.9321 11.2888 16.8296 10.7596 15.5458 10.7596Z" fill="white"/>
<path d="M33.9995 32L37.7982 7.98231H42.5446L41.9561 11.7665H43.1026L41.1077 14.2304C41.4363 12.1503 42.1624 10.5307 43.286 9.37931C44.4095 8.22794 45.8388 7.65225 47.5585 7.65225C48.6974 7.65225 49.6528 7.95161 50.44 8.558C51.2273 9.16439 51.7852 9.99338 52.1292 11.0603C52.4655 12.1273 52.519 13.3477 52.2744 14.7294L51.5177 19.3349C51.1661 21.5916 50.3865 23.334 49.1789 24.5621C47.9636 25.7902 46.435 26.4043 44.5777 26.4043C42.9573 26.4043 41.7574 25.8056 40.9548 24.6082C40.1599 23.4107 39.9153 21.8142 40.2211 19.8184L41.4363 22.3208H40.2899L39.7013 27.0568L38.9141 31.9923H33.9995V32ZM43.3701 22.1289C44.2643 22.1289 44.9981 21.8679 45.5637 21.3536C46.1293 20.8393 46.4885 20.1101 46.6414 19.166L47.3292 14.8906C47.4821 13.9234 47.3522 13.1942 46.9394 12.6876C46.5267 12.181 45.8694 11.9277 44.9751 11.9277C44.035 11.9277 43.286 12.1963 42.7128 12.7337C42.1472 13.271 41.7726 14.0462 41.5968 15.0518L40.9778 18.9971C40.8249 20.0027 40.9472 20.7779 41.3523 21.3152C41.7574 21.8525 42.43 22.1212 43.3701 22.1212V22.1289Z" fill="#000814"/>
<path d="M58.9254 26.4123C57.3509 26.4123 56.021 26.1052 54.928 25.4912C53.8351 24.8771 53.0478 24.0251 52.551 22.9274C52.0618 21.8298 51.9319 20.5786 52.1765 19.174L52.8644 14.8985C53.2542 12.5958 54.2401 10.815 55.8146 9.55613C57.3891 8.2973 59.4146 7.66788 61.9063 7.66788C63.4578 7.66788 64.7801 7.92886 65.8884 8.44314C66.989 8.95742 67.8068 9.67895 68.3266 10.6C68.8463 11.5211 69.0144 12.5958 68.8157 13.8239C68.5941 15.2746 67.9903 16.3953 66.9966 17.1936C66.003 17.9919 64.7343 18.391 63.1827 18.391H57.0223L56.8618 19.1816C56.6401 20.3253 56.77 21.1543 57.2363 21.6839C57.7025 22.2136 58.4745 22.4746 59.5445 22.4746C60.2401 22.4746 60.8744 22.3671 61.4248 22.1445C61.9827 21.9219 62.3496 21.5995 62.5254 21.1543H67.3406C66.7291 22.82 65.6897 24.1172 64.2145 25.0383C62.7394 25.9594 60.9738 26.4199 58.9254 26.4199V26.4123ZM57.4809 15.3284L62.4948 15.2593C62.8693 15.2593 63.175 15.1595 63.412 14.9599C63.6489 14.7603 63.8171 14.3996 63.9011 13.8776C64.0311 13.11 63.8553 12.4883 63.3738 12.0201C62.8922 11.5518 62.2044 11.3139 61.3101 11.3139C60.2401 11.3139 59.3917 11.6286 58.7573 12.2657C58.1229 12.9028 57.7178 13.7778 57.542 14.8985L57.4732 15.3284H57.4809Z" fill="#000814"/>
<path d="M76.8552 32L77.6425 27.0644L78.4603 22.9502H77.3138L79.408 19.8261C79.0565 21.9063 78.3227 23.5259 77.1992 24.6772C76.0756 25.8286 74.6616 26.4043 72.9572 26.4043C71.8184 26.4043 70.863 26.105 70.0757 25.5139C69.2885 24.9229 68.7305 24.0939 68.4018 23.0269C68.0732 21.96 68.0197 20.7319 68.2413 19.3272L68.998 14.7217C69.3725 12.465 70.1521 10.7226 71.3598 9.49445C72.5597 8.26632 74.0884 7.65225 75.9457 7.65225C77.5813 7.65225 78.8042 8.24329 79.5991 9.42537C80.394 10.6074 80.631 12.2117 80.3023 14.2304L79.087 11.7665H80.2335L80.822 7.98231H85.5685L81.7698 32H76.8552ZM75.5482 22.1289C76.4883 22.1289 77.245 21.8602 77.8259 21.3229C78.4068 20.7856 78.7737 20.0103 78.9265 19.0048L79.5456 15.0594C79.7214 14.0539 79.5991 13.2786 79.1864 12.7413C78.7737 12.204 78.0934 11.9354 77.1533 11.9354C76.2132 11.9354 75.5253 12.1887 74.9597 12.6953C74.3941 13.2019 74.0349 13.9311 73.882 14.8982L73.1941 19.1737C73.0413 20.1178 73.1712 20.847 73.5839 21.3613C73.9967 21.8756 74.654 22.1365 75.5482 22.1365V22.1289Z" fill="#000814"/>
<path d="M83.2295 26.0825L83.948 21.6075H90.1695L91.6141 12.4272H86.2103L86.8982 7.98287H96.8879L94.7554 21.5998H99.9987L99.2802 26.0748H83.2295V26.0825ZM94.7249 5.12746C93.8306 5.12746 93.1504 4.89718 92.6918 4.43663C92.2332 3.97608 92.0574 3.35434 92.1644 2.56373C92.2943 1.77312 92.6688 1.15138 93.2803 0.690825C93.8918 0.230275 94.6408 0 95.5427 0C96.4446 0 97.1172 0.230275 97.5758 0.690825C98.0344 1.15138 98.1949 1.77312 98.0649 2.56373C97.9579 3.35434 97.5987 3.97608 96.9872 4.43663C96.3758 4.89718 95.6191 5.12746 94.7249 5.12746Z" fill="#000814"/>
</svg>
