<svg width="100" height="32" viewBox="0 0 100 32" fill="none" xmlns="http://www.w3.org/2000/svg">
<path d="M17.7726 2C23.5927 2 28.3025 6.65432 28.2838 12.3873L28.2767 14.5448C28.25 22.7068 21.5047 29.33 13.2188 29.33H11.2506C5.80581 29.33 1.39373 24.9698 1.41125 19.6064L1.41628 18.0676C1.45291 9.19646 8.77448 2 17.7726 2Z" fill="#FEE400"/>
<path d="M27.1819 5.97226C27.1819 5.97226 27.1363 5.91779 27.1211 5.88666C27.1591 5.94113 27.1971 5.99561 27.2351 6.05008C27.2199 6.02673 27.2047 5.99561 27.1895 5.97226H27.1819Z" fill="#000814"/>
<path d="M1.98288 24.267C1.98288 24.267 2.02847 24.3215 2.04367 24.3526C2.00568 24.2981 1.96768 24.2437 1.92969 24.1892C1.94489 24.2125 1.96008 24.2359 1.97528 24.267H1.98288Z" fill="#000814"/>
<path d="M27.6058 6.64196C27.485 6.43963 27.3642 6.24507 27.2358 6.04274C27.1981 5.98827 27.1603 5.93379 27.1225 5.87932C24.8722 2.65757 21.1796 1 17.1546 1V2.47858C20.9002 2.47858 24.1322 4.05833 26.0125 6.82094C29.607 12.0816 27.4095 20.0815 21.104 24.6573C18.3553 26.6573 15.1309 27.7546 12.0197 27.7546C8.27414 27.7546 5.04212 26.1748 3.15426 23.4122C-0.440234 18.1516 1.76479 10.1516 8.0627 5.5836C10.8114 3.58363 14.0434 2.47858 17.1546 2.47858V1.73929V1C13.8622 1 10.3508 2.11283 7.23959 4.36961C0.307359 9.40457 -2.04869 18.2527 1.93847 24.1904C1.97623 24.2449 2.01399 24.2993 2.05174 24.3538C4.84578 28.3771 9.42196 30.9996 14.5871 30.9996C23.0976 30.9996 29.9997 23.8869 29.9997 15.1166C29.9997 11.996 29.1161 9.09329 27.6058 6.64196Z" fill="#000814"/>
<path d="M25.5657 10.5271C25.4071 10.1224 24.9541 9.92788 24.5614 10.0913L19.9625 12.0135C19.8719 11.8345 19.7738 11.6555 19.6605 11.4843L19.6152 11.422C19.5095 11.2664 19.3962 11.1263 19.2678 10.9862L23.1342 7.00184C23.4362 6.69056 23.4362 6.19251 23.1342 5.88123C22.8321 5.56995 22.3488 5.56995 22.0467 5.88123L18.1275 9.91232C18.1275 9.91232 18.0822 9.99014 18.052 10.029C17.7726 9.87341 17.4706 9.75668 17.1534 9.65551L17.9765 5.7645C18.0671 5.33649 17.8028 4.91626 17.3875 4.82288C16.9722 4.7295 16.5644 5.00187 16.4738 5.42988L15.6507 9.34423C15.6507 9.34423 15.6507 9.3987 15.6507 9.42205H15.1749C14.9635 9.43761 14.7445 9.46874 14.5331 9.49987L14.3292 8.19249C14.2612 7.7567 13.861 7.46876 13.4457 7.5388C13.0228 7.60884 12.7434 8.02129 12.8113 8.4493L13.0454 9.93566C12.5697 10.138 12.109 10.3948 11.6711 10.6983L9.14888 7.46098C8.88458 7.11857 8.40129 7.0641 8.06902 7.33647C7.73676 7.60884 7.6839 8.10689 7.9482 8.4493L10.493 11.7177C10.493 11.7177 10.5006 11.7177 10.5081 11.7333C10.1759 12.0991 9.88892 12.4804 9.64727 12.885L5.34295 11.0641C4.95028 10.9006 4.49719 11.0874 4.33861 11.4998C4.18003 11.9045 4.36126 12.3714 4.76149 12.5349L9.01295 14.3325C8.89213 14.7216 8.81662 15.1107 8.77131 15.4998L3.43999 16.1379C3.01711 16.1846 2.71505 16.5815 2.76036 17.0173C2.80567 17.422 3.13793 17.7177 3.52305 17.7177C3.55326 17.7177 3.58346 17.7177 3.61367 17.7177L8.83927 17.0951C8.91478 17.4609 9.02806 17.8188 9.19419 18.1612L5.07865 22.0445C4.76149 22.3402 4.74639 22.846 5.03334 23.1651C5.18437 23.3363 5.39581 23.4219 5.5997 23.4219C5.78849 23.4219 5.96972 23.3519 6.12075 23.2118L10.1155 19.4453C10.5837 19.9044 11.1425 20.2624 11.7692 20.4959L11.1349 22.3791C10.9914 22.7915 11.2104 23.2429 11.6107 23.3908C11.7013 23.4219 11.7919 23.4375 11.8825 23.4375C12.1921 23.4297 12.4791 23.2273 12.5923 22.9083L13.3022 20.8071C13.4154 20.8071 13.5287 20.8227 13.642 20.8227C14.2083 20.8227 14.7747 20.7371 15.3411 20.5815L16.3454 24.4725C16.436 24.8304 16.7456 25.0639 17.0854 25.0639C17.1534 25.0639 17.2214 25.0561 17.2818 25.0405C17.6896 24.9238 17.9388 24.4958 17.8255 24.0678L16.7758 19.9978C17.0552 19.8499 17.3271 19.6787 17.5914 19.492C17.7575 19.3675 17.9237 19.2429 18.0822 19.1029L20.5214 21.5698C20.6724 21.7176 20.8687 21.7954 21.0575 21.7954C21.2463 21.7954 21.4577 21.7176 21.6088 21.5542C21.9033 21.2429 21.9033 20.7371 21.6012 20.4336L19.147 17.9589C19.4113 17.6009 19.6454 17.2274 19.8342 16.8383L24.0177 17.1729C24.0177 17.1729 24.0554 17.1729 24.0781 17.1729C24.4783 17.1729 24.8106 16.8539 24.8483 16.4414C24.8785 16.0056 24.5614 15.6243 24.1385 15.5854L20.3628 15.2819C20.4836 14.6905 20.5063 14.099 20.4383 13.531L25.1655 11.5543C25.5582 11.3909 25.747 10.924 25.5884 10.5193L25.5657 10.5271ZM16.8136 18.3869C15.8395 19.0951 14.7067 19.4764 13.6193 19.4764C12.3356 19.4764 11.2331 18.9394 10.5988 18.0134C9.36787 16.2157 10.1532 13.4531 12.3507 11.8578C13.3173 11.1497 14.4575 10.7683 15.545 10.7683C16.8287 10.7683 17.9312 11.3053 18.5655 12.2314C19.7964 14.029 19.0111 16.7916 16.8136 18.3869Z" fill="#000814"/>
<path d="M11.5348 23.8948C11.1346 23.7392 10.6891 23.9493 10.5456 24.354L10.1378 25.459C9.9868 25.8715 10.1907 26.3306 10.5834 26.4785C10.674 26.5174 10.7646 26.5329 10.8552 26.5329C11.1648 26.5329 11.4593 26.3384 11.5726 26.0193L11.9804 24.9143C12.1314 24.5018 11.9275 24.0427 11.5348 23.8948Z" fill="#000814"/>
<path d="M12.3426 6.23839C12.4333 6.63527 12.7957 6.89208 13.1809 6.84539C13.2111 6.84539 13.2337 6.8376 13.2639 6.82982C13.6792 6.72866 13.936 6.30065 13.8378 5.87264L13.6037 4.85319C13.5056 4.42518 13.0902 4.16059 12.6749 4.26176C12.2596 4.36293 12.0028 4.79094 12.101 5.21895L12.3351 6.23839H12.3426Z" fill="#000814"/>
<path d="M15.5458 10.7596C14.4509 10.7596 13.3182 11.1487 12.3516 11.8491C10.1541 13.4444 9.36875 16.2071 10.5996 18.0047C11.234 18.9385 12.3365 19.4677 13.6202 19.4677C14.7152 19.4677 15.8479 19.0786 16.8145 18.3782C19.012 16.7829 19.7973 14.0203 18.5664 12.2227C17.9321 11.2888 16.8296 10.7596 15.5458 10.7596Z" fill="white"/>
<path d="M34 32L37.7987 7.98231H42.5451L41.9566 11.7665H43.103L41.1082 14.2304C41.4368 12.1503 42.1629 10.5307 43.2865 9.37931C44.41 8.22794 45.8393 7.65225 47.559 7.65225C48.6979 7.65225 49.6533 7.95161 50.4405 8.558C51.2278 9.16439 51.7857 9.99338 52.1297 11.0603C52.466 12.1273 52.5195 13.3477 52.2749 14.7294L51.5182 19.3349C51.1666 21.5916 50.387 23.334 49.1794 24.5621C47.9641 25.7902 46.4355 26.4043 44.5782 26.4043C42.9578 26.4043 41.7578 25.8056 40.9553 24.6082C40.1604 23.4107 39.9158 21.8142 40.2216 19.8184L41.4368 22.3208H40.2904L39.7018 27.0568L38.9146 31.9923H34V32ZM43.3706 22.1289C44.2648 22.1289 44.9986 21.8679 45.5642 21.3536C46.1298 20.8393 46.489 20.1101 46.6418 19.166L47.3297 14.8906C47.4826 13.9234 47.3527 13.1942 46.9399 12.6876C46.5272 12.181 45.8699 11.9277 44.9756 11.9277C44.0355 11.9277 43.2865 12.1963 42.7132 12.7337C42.1476 13.271 41.7731 14.0462 41.5973 15.0518L40.9782 18.9971C40.8254 20.0027 40.9477 20.7779 41.3528 21.3152C41.7578 21.8525 42.4304 22.1212 43.3706 22.1212V22.1289Z" fill="white"/>
<path d="M58.9259 26.4123C57.3514 26.4123 56.0215 26.1052 54.9285 25.4912C53.8355 24.8771 53.0483 24.0251 52.5515 22.9274C52.0623 21.8298 51.9324 20.5786 52.177 19.174L52.8649 14.8985C53.2547 12.5958 54.2406 10.815 55.8151 9.55613C57.3896 8.2973 59.4151 7.66788 61.9068 7.66788C63.4583 7.66788 64.7806 7.92886 65.8889 8.44314C66.9895 8.95742 67.8073 9.67895 68.327 10.6C68.8468 11.5211 69.0149 12.5958 68.8162 13.8239C68.5946 15.2746 67.9908 16.3953 66.9971 17.1936C66.0035 17.9919 64.7347 18.391 63.1832 18.391H57.0228L56.8623 19.1816C56.6406 20.3253 56.7705 21.1543 57.2368 21.6839C57.703 22.2136 58.475 22.4746 59.545 22.4746C60.2405 22.4746 60.8749 22.3671 61.4252 22.1445C61.9832 21.9219 62.3501 21.5995 62.5259 21.1543H67.3411C66.7296 22.82 65.6901 24.1172 64.215 25.0383C62.7399 25.9594 60.9743 26.4199 58.9259 26.4199V26.4123ZM57.4813 15.3284L62.4953 15.2593C62.8698 15.2593 63.1755 15.1595 63.4125 14.9599C63.6494 14.7603 63.8176 14.3996 63.9016 13.8776C64.0316 13.11 63.8558 12.4883 63.3743 12.0201C62.8927 11.5518 62.2048 11.3139 61.3106 11.3139C60.2405 11.3139 59.3922 11.6286 58.7578 12.2657C58.1234 12.9028 57.7183 13.7778 57.5425 14.8985L57.4737 15.3284H57.4813Z" fill="white"/>
<path d="M76.8552 32L77.6425 27.0644L78.4603 22.9502H77.3138L79.408 19.8261C79.0565 21.9063 78.3227 23.5259 77.1992 24.6772C76.0756 25.8286 74.6616 26.4043 72.9572 26.4043C71.8184 26.4043 70.863 26.105 70.0757 25.5139C69.2885 24.9229 68.7305 24.0939 68.4018 23.0269C68.0732 21.96 68.0197 20.7319 68.2413 19.3272L68.998 14.7217C69.3725 12.465 70.1521 10.7226 71.3598 9.49445C72.5597 8.26632 74.0884 7.65225 75.9457 7.65225C77.5813 7.65225 78.8042 8.24329 79.5991 9.42537C80.394 10.6074 80.631 12.2117 80.3023 14.2304L79.087 11.7665H80.2335L80.822 7.98231H85.5685L81.7698 32H76.8552ZM75.5482 22.1289C76.4883 22.1289 77.245 21.8602 77.8259 21.3229C78.4068 20.7856 78.7737 20.0103 78.9265 19.0048L79.5456 15.0594C79.7214 14.0539 79.5991 13.2786 79.1864 12.7413C78.7737 12.204 78.0934 11.9354 77.1533 11.9354C76.2132 11.9354 75.5253 12.1887 74.9597 12.6953C74.3941 13.2019 74.0349 13.9311 73.882 14.8982L73.1941 19.1737C73.0413 20.1178 73.1712 20.847 73.5839 21.3613C73.9967 21.8756 74.654 22.1365 75.5482 22.1365V22.1289Z" fill="white"/>
<path d="M83.2305 26.0825L83.9489 21.6075H90.1705L91.6151 12.4272H86.2113L86.8992 7.98287H96.8889L94.7564 21.5998H99.9996L99.2812 26.0748H83.2305V26.0825ZM94.7258 5.12746C93.8316 5.12746 93.1513 4.89718 92.6927 4.43663C92.2342 3.97608 92.0584 3.35434 92.1654 2.56373C92.2953 1.77312 92.6698 1.15138 93.2813 0.690825C93.8927 0.230275 94.6418 0 95.5437 0C96.4456 0 97.1182 0.230275 97.5767 0.690825C98.0353 1.15138 98.1958 1.77312 98.0659 2.56373C97.9589 3.35434 97.5997 3.97608 96.9882 4.43663C96.3768 4.89718 95.6201 5.12746 94.7258 5.12746Z" fill="white"/>
</svg>
