<?xml version="1.0" encoding="UTF-8" ?>
<!DOCTYPE svg PUBLIC "-//W3C//DTD SVG 1.1//EN" "http://www.w3.org/Graphics/SVG/1.1/DTD/svg11.dtd">
<svg width="120pt" height="117pt" viewBox="0 0 120 117" version="1.1" xmlns="http://www.w3.org/2000/svg">
<path fill="#000000" stroke="#000000" stroke-width="0.09375" opacity="1.00" d=" M 0.00 59.39 C 4.27 23.82 40.80 -3.45 76.02 0.97 C 87.77 2.38 99.23 7.93 106.76 17.19 C 115.24 27.83 119.97 41.41 119.79 55.02 C 120.02 71.23 113.19 87.33 101.57 98.60 C 90.17 109.99 74.09 116.47 57.98 116.29 C 41.20 116.40 24.58 109.12 13.16 96.85 C 5.90 89.46 1.05 79.73 0.00 69.38 L 0.00 59.39 M 56.55 7.71 C 36.43 12.08 18.32 26.13 10.06 45.14 C 5.52 55.53 4.20 67.72 8.32 78.46 C 12.15 89.08 21.28 97.38 31.94 100.87 C 43.04 104.77 55.34 104.10 66.42 100.49 C 81.59 95.46 95.02 85.01 103.12 71.18 C 108.80 61.61 111.77 50.18 110.10 39.08 C 108.55 28.49 102.16 18.73 93.03 13.13 C 82.27 6.38 68.80 5.10 56.55 7.71 Z" />
<path fill="#ffe300" stroke="#ffe300" stroke-width="0.09375" opacity="1.00" d=" M 56.55 7.71 C 68.80 5.10 82.27 6.38 93.03 13.13 C 102.16 18.73 108.55 28.49 110.10 39.08 C 111.77 50.18 108.80 61.61 103.12 71.18 C 95.02 85.01 81.59 95.46 66.42 100.49 C 55.34 104.10 43.04 104.77 31.94 100.87 C 21.28 97.38 12.15 89.08 8.32 78.46 C 4.20 67.72 5.52 55.53 10.06 45.14 C 18.32 26.13 36.43 12.08 56.55 7.71 M 50.23 13.19 C 47.70 15.01 49.01 18.52 49.36 21.06 C 50.06 24.51 55.97 23.55 55.50 20.02 C 55.87 16.82 54.65 11.18 50.23 13.19 M 66.16 17.02 C 64.91 22.16 64.52 27.47 63.45 32.64 C 61.85 33.46 59.66 32.82 57.84 33.04 C 57.56 31.07 57.38 29.09 56.88 27.16 C 55.36 24.72 51.62 25.55 50.65 28.07 C 50.98 30.34 51.30 32.61 51.55 34.89 C 49.49 35.97 47.45 37.07 45.42 38.20 C 42.85 33.92 40.28 29.64 37.67 25.39 C 36.74 23.19 33.11 23.07 32.04 25.19 C 30.98 26.58 31.78 28.16 32.58 29.43 C 35.24 33.89 37.96 38.31 40.68 42.75 C 39.84 43.90 39.01 45.05 38.18 46.20 C 32.07 43.93 26.18 41.08 20.02 38.97 C 16.91 38.72 15.33 43.40 18.17 44.88 C 23.81 47.58 29.76 49.58 35.46 52.16 C 35.16 53.57 34.86 54.99 34.58 56.41 C 27.42 57.21 20.26 57.99 13.13 58.92 C 9.79 59.23 9.81 64.79 13.11 65.18 C 20.36 64.67 27.57 63.54 34.81 62.79 C 35.25 64.12 35.69 65.46 36.14 66.79 C 30.68 71.82 25.12 76.73 19.71 81.81 C 17.23 84.31 20.64 88.66 23.66 86.77 C 29.27 82.10 34.43 76.89 39.98 72.13 C 42.14 73.47 44.22 74.98 46.57 76.00 C 45.61 78.63 44.38 81.18 43.70 83.91 C 43.53 86.89 47.29 88.17 49.34 86.29 C 50.90 83.38 51.76 80.16 53.05 77.13 C 55.68 77.12 58.30 76.87 60.87 76.31 C 62.31 81.47 63.44 86.73 65.12 91.82 C 66.53 94.83 71.58 93.45 71.14 90.13 C 69.92 84.70 68.26 79.37 66.91 73.97 C 68.61 72.89 70.31 71.79 71.95 70.62 C 75.52 73.88 78.57 77.73 82.47 80.63 C 85.11 81.81 88.19 78.88 86.70 76.26 C 83.54 72.61 79.92 69.39 76.43 66.06 C 77.32 64.64 78.21 63.21 79.09 61.77 C 85.05 62.14 91.00 63.07 96.98 62.94 C 99.72 62.03 99.70 57.79 96.96 56.92 C 91.78 56.21 86.54 56.05 81.32 55.65 C 81.43 53.46 81.50 51.27 81.49 49.08 C 87.79 46.44 94.18 44.02 100.46 41.36 C 102.69 40.53 102.89 37.00 100.85 35.88 C 99.45 34.78 97.60 35.56 96.15 36.09 C 90.63 38.31 85.14 40.59 79.60 42.75 C 78.77 41.51 77.93 40.27 77.09 39.04 C 82.07 34.01 87.14 29.05 92.10 24.00 C 95.68 21.08 90.30 16.01 87.43 19.48 C 82.16 24.66 76.97 29.93 71.74 35.14 C 71.23 34.90 70.21 34.41 69.70 34.16 C 70.48 29.45 71.34 24.75 72.07 20.04 C 72.21 18.61 72.72 16.66 71.15 15.79 C 69.58 14.24 66.88 15.01 66.16 17.02 M 42.06 90.02 C 41.04 92.19 39.79 94.50 40.02 96.97 C 41.00 99.45 44.01 99.46 45.88 98.00 C 46.52 95.69 47.89 93.52 47.99 91.09 C 47.63 88.28 43.20 87.31 42.06 90.02 Z" />
<path fill="#000000" stroke="#000000" stroke-width="0.09375" opacity="1.00" d=" M 50.23 13.19 C 54.65 11.18 55.87 16.82 55.50 20.02 C 55.97 23.55 50.06 24.51 49.36 21.06 C 49.01 18.52 47.70 15.01 50.23 13.19 Z" />
<path fill="#000000" stroke="#000000" stroke-width="0.09375" opacity="1.00" d=" M 66.16 17.02 C 66.88 15.01 69.58 14.24 71.15 15.79 C 72.72 16.66 72.21 18.61 72.07 20.04 C 71.34 24.75 70.48 29.45 69.70 34.16 C 70.21 34.41 71.23 34.90 71.74 35.14 C 76.97 29.93 82.16 24.66 87.43 19.48 C 90.30 16.01 95.68 21.08 92.10 24.00 C 87.14 29.05 82.07 34.01 77.09 39.04 C 77.93 40.27 78.77 41.51 79.60 42.75 C 85.14 40.59 90.63 38.31 96.15 36.09 C 97.60 35.56 99.45 34.78 100.85 35.88 C 102.89 37.00 102.69 40.53 100.46 41.36 C 94.18 44.02 87.79 46.44 81.49 49.08 C 81.50 51.27 81.43 53.46 81.32 55.65 C 86.54 56.05 91.78 56.21 96.96 56.92 C 99.70 57.79 99.72 62.03 96.98 62.94 C 91.00 63.07 85.05 62.14 79.09 61.77 C 78.21 63.21 77.32 64.64 76.43 66.06 C 79.92 69.39 83.54 72.61 86.70 76.26 C 88.19 78.88 85.11 81.81 82.47 80.63 C 78.57 77.73 75.52 73.88 71.95 70.62 C 70.31 71.79 68.61 72.89 66.91 73.97 C 68.26 79.37 69.92 84.70 71.14 90.13 C 71.58 93.45 66.53 94.83 65.12 91.82 C 63.44 86.73 62.31 81.47 60.87 76.31 C 58.30 76.87 55.68 77.12 53.05 77.13 C 51.76 80.16 50.90 83.38 49.34 86.29 C 47.29 88.17 43.53 86.89 43.70 83.91 C 44.38 81.18 45.61 78.63 46.57 76.00 C 44.22 74.98 42.14 73.47 39.98 72.13 C 34.43 76.89 29.27 82.10 23.66 86.77 C 20.64 88.66 17.23 84.31 19.71 81.81 C 25.12 76.73 30.68 71.82 36.14 66.79 C 35.69 65.46 35.25 64.12 34.81 62.79 C 27.57 63.54 20.36 64.67 13.11 65.18 C 9.81 64.79 9.79 59.23 13.13 58.92 C 20.26 57.99 27.42 57.21 34.58 56.41 C 34.86 54.99 35.16 53.57 35.46 52.16 C 29.76 49.58 23.81 47.58 18.17 44.88 C 15.33 43.40 16.91 38.72 20.02 38.97 C 26.18 41.08 32.07 43.93 38.18 46.20 C 39.01 45.05 39.84 43.90 40.68 42.75 C 37.96 38.31 35.24 33.89 32.58 29.43 C 31.78 28.16 30.98 26.58 32.04 25.19 C 33.11 23.07 36.74 23.19 37.67 25.39 C 40.28 29.64 42.85 33.92 45.42 38.20 C 47.45 37.07 49.49 35.97 51.55 34.89 C 51.30 32.61 50.98 30.34 50.65 28.07 C 51.62 25.55 55.36 24.72 56.88 27.16 C 57.38 29.09 57.56 31.07 57.84 33.04 C 59.66 32.82 61.85 33.46 63.45 32.64 C 64.52 27.47 64.91 22.16 66.16 17.02 M 56.15 39.16 C 48.71 41.37 42.25 47.41 40.35 55.04 C 39.26 59.37 40.28 64.29 43.53 67.46 C 47.66 71.78 54.36 72.45 59.86 70.80 C 69.38 68.08 77.90 58.32 75.67 47.98 C 73.68 39.71 63.56 36.53 56.15 39.16 Z" />
<path fill="#ffffff" stroke="#ffffff" stroke-width="0.09375" opacity="1.00" d=" M 56.15 39.16 C 63.56 36.53 73.68 39.71 75.67 47.98 C 77.90 58.32 69.38 68.08 59.86 70.80 C 54.36 72.45 47.66 71.78 43.53 67.46 C 40.28 64.29 39.26 59.37 40.35 55.04 C 42.25 47.41 48.71 41.37 56.15 39.16 Z" />
<path fill="#000000" stroke="#000000" stroke-width="0.09375" opacity="1.00" d=" M 42.06 90.02 C 43.20 87.31 47.63 88.28 47.99 91.09 C 47.89 93.52 46.52 95.69 45.88 98.00 C 44.01 99.46 41.00 99.45 40.02 96.97 C 39.79 94.50 41.04 92.19 42.06 90.02 Z" />
</svg>
